<?xml version="1.0" standalone="no"?>
<!DOCTYPE svg PUBLIC "-//W3C//DTD SVG 1.1//EN" "http://www.w3.org/Graphics/SVG/1.1/DTD/svg11.dtd" >
<svg xmlns="http://www.w3.org/2000/svg" xmlns:xlink="http://www.w3.org/1999/xlink" version="1.1">
<metadata></metadata>
<defs>
<font id="vni_helveregular" horiz-adv-x="81" >
<font-face units-per-em="2048" ascent="1638" descent="-410" />
<missing-glyph horiz-adv-x="602" />
<glyph horiz-adv-x="0" />
<glyph unicode="&#xd;" horiz-adv-x="602" />
<glyph unicode=" "  horiz-adv-x="602" />
<glyph unicode="&#x09;" horiz-adv-x="602" />
<glyph unicode="&#xa0;" horiz-adv-x="602" />
<glyph unicode="!" horiz-adv-x="602" d="M184 0v209h201v-209h-201zM184 987v483h201v-483l-49 -635h-103z" />
<glyph unicode="&#x22;" horiz-adv-x="786" d="M143 950v520h152v-520h-152zM434 950v520h152v-520h-152z" />
<glyph unicode="#" horiz-adv-x="1200" d="M57 430l21 131h209l41 291h-213l20 127h209l62 430h135l-58 -430h254l58 430h139l-62 -430h213l-20 -127h-209l-41 -291h209l-16 -131h-213l-58 -430h-135l57 430h-253l-62 -430h-135l61 430h-213zM422 561h258l37 291h-254z" />
<glyph unicode="$" horiz-adv-x="1200" d="M66 438h180q0 -160 58 -231.5t216 -95.5v544q-209 49 -301 121q-125 96 -125 281q0 174 125 287.5t301 113.5v131h94v-131q418 -37 418 -389h-176q-12 111 -69.5 164t-172.5 74v-488q199 -59 267 -92q184 -92 184 -326q0 -233 -162 -352q-123 -90 -289 -90v-197h-94v197 q-455 0 -454 479zM274 1069q0 -186 246 -229v467q-109 0 -177.5 -64.5t-68.5 -173.5zM614 111q121 0 196 69.5t75 188.5q0 78 -43 142t-117 87l-111 33v-520z" />
<glyph unicode="%" horiz-adv-x="1912" d="M82 1077q0 147 100.5 247.5t247.5 100.5q145 0 246.5 -101t101.5 -247q0 -145 -101.5 -246.5t-246.5 -101.5t-246.5 101.5t-101.5 246.5zM225 1077q0 -90 57.5 -147.5t147.5 -57.5q88 0 146.5 58.5t58.5 146.5q0 86 -59.5 145.5t-145.5 59.5t-145.5 -59.5t-59.5 -145.5z M451 -41l806 1483h115l-811 -1483h-110zM1044 336q0 147 100.5 247.5t248.5 100.5q145 0 246.5 -101.5t101.5 -246.5q0 -147 -101.5 -249.5t-246.5 -102.5t-247 102.5t-102 249.5zM1188 336q0 -90 57.5 -147.5t147.5 -57.5q88 0 146 58.5t58 146.5q0 86 -59 145.5t-145 59.5 t-145.5 -59.5t-59.5 -145.5z" />
<glyph unicode="&#x26;" horiz-adv-x="1454" d="M90 356q0 172 90 281q66 80 242 182q-86 106 -117 164q-39 74 -39 160q0 150 98.5 238.5t249.5 88.5q145 0 236 -77q96 -84 96 -226q0 -137 -90 -241q-51 -59 -176 -144l270 -319q39 104 58 229h172q0 -148 -119 -373l262 -319h-233l-140 168q-172 -201 -426 -201 q-240 0 -354 152q-80 106 -80 237zM270 369q0 -123 103 -191q78 -51 164 -51q200 0 319 164l-332 405q-141 -90 -186 -141q-68 -76 -68 -186zM442 1155q1 -111 144 -254q84 55 121 98q63 74 63 156q0 160 -156 160q-172 0 -172 -160z" />
<glyph unicode="'" horiz-adv-x="417" d="M123 950v520h147v-520h-147z" />
<glyph unicode="(" horiz-adv-x="737" d="M139 537q0 266 94 512q82 206 254 454h123q-100 -190 -147 -299q-76 -180 -107 -350q-25 -150 -24 -367q0 -293 135 -608q37 -84 147 -305h-122q-182 272 -256 457q-96 240 -97 506z" />
<glyph unicode=")" horiz-adv-x="737" d="M70 1503h123q123 -184 186 -305q166 -315 166 -653q0 -266 -94 -512q-82 -213 -254 -459h-123q98 188 147 301q131 305 131 719q0 291 -135 604q-45 104 -147 305z" />
<glyph unicode="*" horiz-adv-x="856" d="M82 1212l41 111l213 -78v225h123v-225l217 78l41 -111l-221 -69l135 -189l-99 -69l-135 192l-131 -192l-102 69l139 189z" />
<glyph unicode="+" horiz-adv-x="1269" d="M82 442v152h442v442h152v-442h442v-152h-442v-442h-152v442h-442z" />
<glyph unicode="," horiz-adv-x="602" d="M180 0v217h213v-201q0 -279 -213 -319v94q106 10 107 209h-107z" />
<glyph unicode="-" horiz-adv-x="737" d="M90 475v184h504v-184h-504z" />
<glyph unicode="." horiz-adv-x="602" d="M180 0v217h213v-217h-213z" />
<glyph unicode="/" horiz-adv-x="602" d="M-37 -41l508 1552h135l-504 -1552h-139z" />
<glyph unicode="0" horiz-adv-x="1200" d="M78 700q0 301 94 492q125 250 397 250t400 -250q96 -191 96 -492q0 -291 -92 -481q-127 -260 -404 -260q-272 0 -397 250q-94 188 -94 491zM270 700q0 -578 299 -577q303 -1 303 577t-303 578q-299 0 -299 -578z" />
<glyph unicode="1" horiz-adv-x="1200" d="M209 1024v143q182 0 258 50q86 55 127 225h143v-1442h-192v1024h-336z" />
<glyph unicode="2" horiz-adv-x="1200" d="M53 0q0 375 340 573l189 111q154 90 190 129q76 80 76 207q0 121 -84 192q-78 66 -203 66q-291 0 -291 -352h-180q0 246 129 381t371 135q197 0 323.5 -118t126.5 -312q0 -174 -112 -295q-78 -82 -273 -189l-151 -82q-223 -121 -246 -274h782v-172h-987z" />
<glyph unicode="3" horiz-adv-x="1200" d="M70 442h188q0 -319 307 -319q133 0 222.5 74.5t89.5 203.5q0 160 -121 224q-92 49 -215 43l-82 -4v155l94 -4q111 -4 188 51q86 61 86 187q0 111 -79 170q-72 55 -187 55q-279 0 -278 -307h-177q0 223 119 347t344 124q190 0 312 -94q135 -102 135 -287q0 -102 -43 -180 q-49 -86 -142 -115q238 -82 238 -340q0 -223 -149 -348q-139 -119 -367 -119q-143 0 -266 66q-217 117 -217 417z" />
<glyph unicode="4" horiz-adv-x="1200" d="M53 352v176l660 914h147v-934h213v-156h-213v-352h-180v352h-627zM217 508h463v651z" />
<glyph unicode="5" horiz-adv-x="1200" d="M66 360h188q25 -242 303 -241q137 0 223 96q80 92 80 231q0 145 -87 232.5t-232 87.5q-158 0 -267 -135l-155 8l110 770h746v-176h-610l-62 -393q123 90 279 90q203 0 337 -130t134 -333q0 -182 -90 -313q-135 -195 -431 -195q-199 0 -321.5 102.5t-144.5 298.5z" />
<glyph unicode="6" horiz-adv-x="1200" d="M78 672q0 299 104 502q139 268 428 268q156 0 273 -82q149 -104 149 -303h-176q-45 221 -250 221q-184 0 -276 -209q-63 -145 -64 -324l4 -4q100 176 340 177q166 0 291 -99q160 -125 160 -356q0 -213 -133 -359q-78 -86 -164 -116q-76 -29 -203 -29q-238 0 -373 213 q-111 174 -110 500zM291 442q0 -139 82 -229t221 -90q135 0 213 100q70 92 70 232q0 135 -78 219t-213 84q-141 0 -218 -86.5t-77 -229.5z" />
<glyph unicode="7" horiz-adv-x="1200" d="M78 1233v176h995v-156q-92 -98 -192 -247q-311 -463 -402 -1006h-196q39 301 211 653q160 328 374 580h-790z" />
<glyph unicode="8" horiz-adv-x="1200" d="M78 414q0 254 246 352q-197 72 -197 278q0 145 90 254q119 143 348 144q182 0 307 -92q136 -105 136 -281q0 -213 -185 -303q238 -98 238 -348q0 -215 -134 -337t-354 -122q-203 0 -348 115q-96 76 -129 186q-18 63 -18 154zM270 410q0 -137 83 -212t225 -75 q291 0 290 274q0 133 -82 206t-217 73q-129 0 -211 -68q-88 -74 -88 -198zM315 1053q0 -100 74 -161t176 -61q109 0 183.5 63.5t74.5 170.5q0 104 -86 162q-74 51 -184 51q-238 0 -238 -225z" />
<glyph unicode="9" horiz-adv-x="1200" d="M86 946q0 217 121 352q129 143 342 144q504 0 504 -668q0 -145 -25 -280q-96 -535 -496 -535q-227 0 -342 141q-88 109 -88 248h181q0 -111 67.5 -174t177.5 -63q176 0 265 194q51 117 79 346l-4 4q-41 -84 -139 -131q-88 -41 -188 -41q-209 0 -332 126t-123 337z M274 954q0 -311 291 -311q139 0 211 96q68 86 68 232q0 141 -76 224t-215 83q-135 0 -211 -96q-68 -88 -68 -228z" />
<glyph unicode=":" horiz-adv-x="602" d="M180 0v217h213v-217h-213zM180 840v217h213v-217h-213z" />
<glyph unicode=";" horiz-adv-x="602" d="M180 0v217h213v-201q0 -279 -213 -319v94q106 10 107 209h-107zM180 840v217h213v-217h-213z" />
<glyph unicode="&#x3c;" horiz-adv-x="1269" d="M98 446v144l1000 426v-164l-799 -332l799 -332v-163z" />
<glyph unicode="=" horiz-adv-x="1269" d="M82 238v147h1036v-147h-1036zM82 651v148h1036v-148h-1036z" />
<glyph unicode="&#x3e;" horiz-adv-x="1269" d="M98 25v163l799 332l-799 332v164l1000 -426v-144z" />
<glyph unicode="?" horiz-adv-x="1200" d="M115 1012q0 141 28 217q37 92 136 168q125 94 294 94q186 0 310.5 -108.5t124.5 -292.5q0 -98 -43 -170q-35 -59 -150 -170q-84 -82 -108 -113q-72 -92 -72 -240l4 -20h-180q0 195 67 297q35 51 120 134t116 128q53 78 53 166q0 106 -68.5 169.5t-177.5 63.5 q-274 1 -274 -323h-180zM455 0v209h196v-209h-196z" />
<glyph unicode="@" horiz-adv-x="1509" d="M328 741q0 322 224 546t546 224q289 0 491 -172q213 -184 213 -467q0 -256 -176 -436q-154 -158 -311 -157q-131 0 -131 131l-4 -4q-127 -127 -246 -127q-133 0 -218 96t-85 231q0 219 125 385q137 180 350 180q157 1 233 -159l41 127h140q-43 -156 -121 -420 q-63 -217 -64 -248q0 -57 45 -57q125 0 213 166q78 141 78 276q0 240 -168 387q-162 141 -405 141q-272 0 -447.5 -190t-175.5 -465q0 -274 182.5 -456.5t456.5 -182.5q143 0 275.5 61.5t220.5 172.5h139q-102 -170 -272 -267.5t-367 -97.5q-332 0 -557 225.5t-225 556.5z M799 627q0 -86 43 -140q47 -61 129 -61q127 0 221 145q86 132 86 265q0 74 -47 131t-121 57q-133 0 -227 -135q-84 -123 -84 -262z" />
<glyph unicode="A" horiz-adv-x="1454" d="M29 0l553 1470h225l532 -1470h-217l-143 430h-590l-156 -430h-204zM451 606h454l-217 647z" />
<glyph unicode="B" horiz-adv-x="1454" d="M152 0v1470h647q180 0 295 -92q123 -100 123 -276q0 -217 -197 -307q119 -51 168 -101q98 -96 98 -260q0 -207 -149 -325q-137 -109 -351 -109h-634zM352 172h422q311 0 311 266q0 250 -344 250h-389v-516zM352 848h357q307 0 307 237q0 217 -303 218h-361v-455z" />
<glyph unicode="C" horiz-adv-x="1568" d="M90 745q0 334 174 543q186 223 514 223q238 0 402 -122q171 -132 200 -361h-192q-31 152 -146 234q-103 73 -260 73h-4q-240 0 -368 -178q-115 -158 -115 -407q0 -610 487 -611q174 0 285 117q100 102 137 285h193q-39 -270 -207 -426t-436 -156q-328 0 -504 236 q-160 211 -160 550z" />
<glyph unicode="D" horiz-adv-x="1568" d="M168 0v1470h594q299 0 465 -210q153 -194 153 -498q0 -305 -131 -506q-166 -256 -495 -256h-586zM365 172h385q223 0 335 182q90 152 91 391q0 244 -97 388q-113 170 -342 170h-372v-1131z" />
<glyph unicode="E" horiz-adv-x="1454" d="M176 0v1470h1073v-176h-872v-450h803v-176h-803v-492h885v-176h-1086z" />
<glyph unicode="F" horiz-adv-x="1314" d="M176 0v1470h1020v-176h-819v-450h721v-176h-721v-668h-201z" />
<glyph unicode="G" horiz-adv-x="1683" d="M98 750q0 299 168 514q192 247 526 247h3q238 0 409 -125q184 -135 213 -362h-192q-74 311 -439 311q-238 0 -368 -186q-115 -164 -115 -412q0 -606 492 -606q180 0 299 94q164 129 163 393h-458v168h643v-786h-127l-49 193q-78 -111 -210 -172.5t-274 -61.5 q-172 0 -293 55q-78 37 -157 113q-150 143 -201 332q-33 119 -33 291z" />
<glyph unicode="H" horiz-adv-x="1568" d="M160 0v1470h196v-606h770v606h197v-1470h-197v688h-770v-688h-196z" />
<glyph unicode="I" horiz-adv-x="602" d="M188 0v1470h197v-1470h-197z" />
<glyph unicode="J" horiz-adv-x="1085" d="M37 328v147h184v-102q0 -242 221 -242q238 0 238 254v1085h197v-1073q0 -207 -110 -322.5t-312 -115.5q-184 0 -297 92q-121 98 -121 277z" />
<glyph unicode="K" horiz-adv-x="1454" d="M156 0v1470h200v-712l713 712h274l-614 -593l631 -877h-258l-516 737l-230 -221v-516h-200z" />
<glyph unicode="L" horiz-adv-x="1200" d="M156 0v1470h200v-1294h746v-176h-946z" />
<glyph unicode="M" horiz-adv-x="1798" d="M152 0v1470h282l422 -1241l422 1241h283v-1470h-193v1237l-414 -1237h-196l-414 1233v-1233h-192z" />
<glyph unicode="N" horiz-adv-x="1568" d="M156 0v1470h237l733 -1187l4 1187h193v-1470h-221l-750 1188l-4 -1188h-192z" />
<glyph unicode="O" horiz-adv-x="1572" d="M94 737q0 293 152 504q195 270 565 270q371 0 563 -268q154 -213 154 -506q0 -295 -152 -508q-193 -270 -565 -270q-371 0 -563 268q-154 215 -154 510zM299 737q0 -256 125 -418q139 -180 387 -180q246 0 385 180q127 164 127 418t-127 418q-139 180 -385 180 q-244 0 -385 -182q-127 -164 -127 -416z" />
<glyph unicode="P" horiz-adv-x="1454" d="M176 0v1470h664q193 0 313.5 -111.5t120.5 -301.5q0 -199 -117 -316.5t-317 -117.5h-463v-623h-201zM377 791h393q299 0 299 266q0 246 -291 246h-401v-512z" />
<glyph unicode="Q" horiz-adv-x="1683" d="M82 737q0 293 151 504q195 270 566 270t563 -268q154 -213 154 -506q0 -360 -213 -577l200 -156l-102 -119l-225 176q-147 -102 -377 -102q-371 0 -563 268q-154 215 -154 510zM287 737q0 -256 125 -418q139 -180 387 -180q121 0 217 45l-156 119l103 123l184 -143 q164 160 164 454q0 254 -127 418q-139 180 -385 180q-244 0 -385 -182q-127 -164 -127 -416z" />
<glyph unicode="R" horiz-adv-x="1568" d="M180 0v1470h680q483 0 483 -393q0 -145 -65 -237q-45 -61 -139 -115q106 -47 141 -107q29 -49 35 -172l12 -266q2 -66 12 -86q12 -31 62 -61v-33h-242q-37 111 -37 369q0 139 -62.5 200.5t-199.5 61.5h-479v-631h-201zM381 803h459q299 0 299 254q0 246 -262 246h-496 v-500z" />
<glyph unicode="S" horiz-adv-x="1454" d="M102 475h185q0 -174 119 -264q106 -80 286 -80q154 0 254 49q131 63 131 201q0 127 -96 186q-55 35 -215 72l-303 70q-115 27 -191 86q-120 93 -120 259q0 220 145 343q134 114 354 114h4q260 0 406 -106q168 -119 168 -365h-185q0 150 -110 230q-97 69 -250 69h-4 q-336 0 -336 -258q0 -143 172 -184l422 -98q332 -78 332 -393q0 -229 -180 -347q-152 -100 -394 -100q-180 0 -301 49q-197 80 -260 264q-33 90 -33 203z" />
<glyph unicode="T" horiz-adv-x="1314" d="M29 1294v176h1196v-176h-500v-1294h-197v1294h-499z" />
<glyph unicode="U" horiz-adv-x="1478" d="M152 492v978h196v-925q0 -188 94.5 -297t278.5 -109q389 0 389 402v929h197v-954q0 -262 -162 -409.5t-428 -147.5q-256 0 -408 137q-158 143 -157 396z" />
<glyph unicode="V" horiz-adv-x="1454" d="M41 1470h221l422 -1253l418 1253h225l-536 -1470h-213z" />
<glyph unicode="W" horiz-adv-x="2027" d="M33 1470h217l274 -1196l332 1196h217l332 -1196l278 1196h218l-385 -1470h-209l-336 1221l-344 -1221h-209z" />
<glyph unicode="X" horiz-adv-x="1454" d="M41 0l524 754l-491 716h250l372 -561l373 561h238l-496 -716l516 -754h-246l-393 606l-409 -606h-238z" />
<glyph unicode="Y" horiz-adv-x="1454" d="M29 1470h233l422 -704l422 704h233l-557 -876v-594h-196v594z" />
<glyph unicode="Z" horiz-adv-x="1314" d="M49 0v168l901 1126h-835v176h1089v-172l-905 -1122h905v-176h-1155z" />
<glyph unicode="[" horiz-adv-x="602" d="M131 -401v1880h381v-144h-221v-1593h221v-143h-381z" />
<glyph unicode="\" horiz-adv-x="602" d="M-37 1511h139l504 -1552h-139z" />
<glyph unicode="]" horiz-adv-x="602" d="M57 -258h222v1593h-222v144h385v-1880h-385v143z" />
<glyph unicode="^" horiz-adv-x="1015" d="M-29 541l439 868h147l434 -868h-160l-348 704l-352 -704h-160z" />
<glyph unicode="_" horiz-adv-x="1200" d="M0 -156h1139v-102h-1139v102z" />
<glyph unicode="`" horiz-adv-x="737" d="M29 1503h221l184 -286h-139z" />
<glyph unicode="a" horiz-adv-x="1175" d="M74 279q0 295 327 335l295 37q45 6 64 25q31 31 31 102q0 176 -250 176q-213 0 -246 -209h-168q0 356 442 357q131 0 230 -45q168 -76 168 -254v-615q0 -65 59 -65h2l57 8v-131q-74 -20 -98 -20q-188 0 -188 163q-166 -176 -389 -176q-145 0 -238 82q-98 86 -98 230z M262 307q0 -188 193 -188q121 0 219 65q112 74 112 189v176q-41 -37 -278 -68q-246 -31 -246 -174z" />
<glyph unicode="b" horiz-adv-x="1200" d="M119 0v1470h180v-532q121 164 315 164q217 0 338 -164q109 -145 109 -369q0 -236 -98 -397q-125 -205 -373 -205q-195 0 -295 168l-4 -135h-172zM291 487q0 -150 71 -249q80 -111 224 -111q156 0 229 137q57 107 57 277q0 401 -290 401q-291 0 -291 -455z" />
<glyph unicode="c" horiz-adv-x="1085" d="M61 508q0 266 123 422q135 172 394 172q176 0 284 -109q101 -102 117 -280h-176q-35 229 -254 229q-154 0 -232 -133q-63 -106 -63 -272q0 -410 295 -410q102 0 172 78q63 70 82 176h176q-20 -188 -133 -299q-119 -115 -305 -115q-227 0 -359 160q-121 147 -121 381z" />
<glyph unicode="d" horiz-adv-x="1200" d="M74 569q0 225 108 371q119 162 338 162q127 0 215 -66q45 -35 105 -114l4 12v536h180v-1470h-172v147q-100 -180 -307 -180q-240 0 -365 189q-106 162 -106 413zM258 541q0 -168 61 -277q76 -137 230 -137q145 0 223 111q68 98 68 249q0 455 -287 455q-295 0 -295 -401z " />
<glyph unicode="e" horiz-adv-x="1200" d="M82 508q0 266 123 422q135 172 393 172q246 0 363 -199q96 -162 96 -424h-783q0 -352 312 -352q96 0 178 55q90 62 100 154h180q-10 -61 -47 -129q-55 -102 -145 -162q-55 -37 -98 -51q-78 -27 -193 -27q-227 0 -358 160q-121 147 -121 381zM274 623h598q0 145 -76.5 232 t-222.5 87q-125 0 -212 -96t-87 -223z" />
<glyph unicode="f" horiz-adv-x="602" d="M29 922v151h147v184q0 233 279 234h39q16 0 43 -4v-160l-74 4h-9q-97 0 -98 -127v-131h181v-151h-181v-922h-180v922h-147z" />
<glyph unicode="g" horiz-adv-x="1200" d="M82 569q0 223 108 369q123 164 338 164q129 0 217 -66q51 -37 103 -114l4 151h172v-983q0 -211 -63 -328q-115 -213 -437 -213q-369 0 -409 320h180q33 -172 242 -172q197 0 266 135q41 80 41 234v57l-4 -8q-92 -147 -287 -148q-240 0 -365 189q-106 162 -106 413z M270 541q0 -168 60 -277q74 -137 227 -137q145 0 225 111q70 96 70 249q0 455 -291 455t-291 -401z" />
<glyph unicode="h" horiz-adv-x="1200" d="M135 0v1470h180v-540q61 76 113 110q90 61 203 62q377 0 377 -373v-729h-181v700q0 123 -43 179q-49 63 -170 63q-152 0 -229 -104q-70 -92 -70 -252v-586h-180z" />
<glyph unicode="i" horiz-adv-x="487" d="M139 0v1073h180v-1073h-180zM139 1266v204h180v-204h-180z" />
<glyph unicode="j" horiz-adv-x="487" d="M-33 -270h37q84 0 109.5 24.5t25.5 106.5v1212h180v-1233q0 -270 -274 -270h-53q-16 4 -25 4v156zM139 1266v204h180v-204h-180z" />
<glyph unicode="k" horiz-adv-x="1085" d="M139 0v1470h172v-852l463 455h230l-410 -401l434 -672h-233l-332 541l-152 -135v-406h-172z" />
<glyph unicode="l" horiz-adv-x="487" d="M139 0v1470h180v-1470h-180z" />
<glyph unicode="m" horiz-adv-x="1798" d="M135 0v1073h168v-151q57 74 109 110q96 70 219 70q188 0 287 -172q82 90 135 123q80 49 192 49q160 0 246 -98.5t86 -262.5v-741h-180v692q0 250 -201 250q-113 0 -181.5 -86t-68.5 -201v-655h-180v741q0 86 -39 140q-45 61 -129 61q-141 0 -217 -111q-66 -98 -66 -245 v-586h-180z" />
<glyph unicode="n" horiz-adv-x="1200" d="M135 0v1073h168v-151q143 180 328 180q377 0 377 -373v-729h-181v659q0 141 -43 205q-53 78 -186 78q-141 0 -217 -111q-66 -98 -66 -245v-586h-180z" />
<glyph unicode="o" horiz-adv-x="1179" d="M74 537q0 240 125 395q135 170 370 170q236 0 373 -168q127 -158 127 -397q0 -238 -129 -396q-137 -170 -371 -170q-233 0 -368 170q-127 158 -127 396zM258 537q0 -168 70 -279q82 -131 241 -131q160 0 242 131q70 111 70 279t-70 278q-82 131 -242 131t-241 -131 q-70 -110 -70 -278z" />
<glyph unicode="p" horiz-adv-x="1200" d="M119 -426v1499h172v-151q57 78 104 112q92 68 219 68q217 0 338 -164q109 -145 109 -369q0 -236 -98 -397q-125 -205 -373 -205q-193 0 -287 148l-4 -541h-180zM291 487q0 -150 71 -249q80 -111 224 -111q156 0 229 137q57 106 57 277q0 401 -290 401q-291 0 -291 -455z " />
<glyph unicode="q" horiz-adv-x="1200" d="M74 569q0 225 108 371q119 162 338 162q127 0 215 -66q45 -35 105 -114l4 151h168v-1499h-181v541q-92 -147 -286 -148q-240 0 -365 189q-106 162 -106 413zM258 541q0 -168 61 -277q76 -137 230 -137q145 0 223 111q68 97 68 249q0 455 -287 455q-295 0 -295 -401z" />
<glyph unicode="r" horiz-adv-x="737" d="M160 0v1073h168v-180q127 209 307 209q33 0 45 -4v-189h-66q-123 0 -198.5 -80.5t-75.5 -205.5v-623h-180z" />
<glyph unicode="s" horiz-adv-x="1085" d="M66 344h176q0 -217 282 -217q246 0 246 168q0 72 -74 111q-41 23 -139 45l-209 49q-246 57 -246 262q0 168 123 258q111 82 283 82q170 0 283 -80q127 -92 127 -256h-177q0 180 -254 180q-84 0 -141 -33q-72 -41 -72 -118q0 -61 45 -90q39 -25 152 -54l180 -45 q145 -37 209 -86q90 -70 90 -196q0 -172 -129 -269q-115 -88 -293 -88q-463 0 -462 377z" />
<glyph unicode="t" horiz-adv-x="602" d="M29 922v151h147v299h180v-299h172v-151h-172v-697q0 -82 107 -82h65v-143l-135 -16q-217 0 -217 233v705h-147z" />
<glyph unicode="u" horiz-adv-x="1200" d="M139 303v770h180v-713q0 -233 209 -233q145 0 226 109q70 96 69 247v590h181v-1073h-173v156l-4 4q-115 -193 -340 -193q-160 0 -254 88t-94 248z" />
<glyph unicode="v" horiz-adv-x="1085" d="M16 1073h209l279 -872l307 872h197l-406 -1073h-192z" />
<glyph unicode="w" horiz-adv-x="1568" d="M29 1073h196l205 -844l213 844h201l209 -844l221 844h180l-311 -1073h-189l-217 831l-213 -831h-184z" />
<glyph unicode="x" horiz-adv-x="1085" d="M25 0l376 553l-360 520h233l246 -377l250 377h221l-364 -520l377 -553h-230l-266 406l-258 -406h-225z" />
<glyph unicode="y" horiz-adv-x="1085" d="M25 1073h204l283 -872l291 872h201l-187 -522q-117 -324 -199 -531q-43 -115 -86 -229q-49 -115 -114 -166q-82 -63 -221 -63q-16 0 -27 2q-31 10 -47 14v164q55 -20 106 -21q80 0 127 86q4 4 66 164z" />
<glyph unicode="z" horiz-adv-x="1085" d="M66 0v143l643 779h-594v151h827v-147l-639 -774h660v-152h-897z" />
<glyph unicode="{" horiz-adv-x="737" d="M86 479v123q84 0 131 94q37 76 37 168v353q0 104 51 178q57 84 158 84h135v-131h-90q-94 0 -94 -168v-349q0 -131 -74 -215q-53 -61 -107 -71q37 -14 74 -45q106 -90 107 -254v-348q0 -168 94 -168h90v-131h-135q-98 0 -158 84q-51 76 -51 178v352q0 96 -37 170 q-45 96 -131 96z" />
<glyph unicode="|" horiz-adv-x="577" d="M193 -41v1552h151v-1552h-151z" />
<glyph unicode="}" horiz-adv-x="737" d="M86 -270h90q94 0 94 168v348q0 100 43 178q47 88 138 117q-35 10 -74 43q-106 90 -107 247v349q0 168 -94 168h-90v131h139q98 0 158 -84q51 -76 51 -178v-353q0 -96 33 -168q45 -94 131 -94v-123q-84 0 -129 -96q-35 -74 -35 -170v-352q0 -102 -51 -178 q-59 -84 -158 -84h-139v131z" />
<glyph unicode="~" horiz-adv-x="1269" d="M127 483q90 176 254 176q82 0 229 -65q166 -74 209 -74q53 0 103 47q20 21 77 101l74 -115q-113 -176 -258 -176q-80 0 -209 69.5t-233 69.5q-109 0 -172 -147z" />
<glyph horiz-adv-x="602" />
<glyph horiz-adv-x="602" />
<glyph horiz-adv-x="602" />
<glyph horiz-adv-x="602" />
<glyph horiz-adv-x="602" />
<glyph horiz-adv-x="602" />
<glyph horiz-adv-x="1933" d="M72 537q0 242 125 397q137 168 372 168q270 0 402 -217q143 217 415 217q248 0 365 -199q96 -160 96 -426h-784q0 -352 313 -352q94 0 180 57q97 64 97 154h180q-8 -61 -45 -131q-84 -162 -244 -211q-80 -25 -192 -25q-256 0 -398 207q-104 -205 -385 -205 q-233 0 -370 170q-127 156 -127 396zM258 537q0 -168 70 -279q82 -131 241 -131q160 0 242 131q70 111 70 279t-70 278q-82 131 -242 131t-241 -131q-70 -110 -70 -278zM1063 621h598q0 147 -76 233t-223 86q-125 0 -212 -96t-87 -223z" />
<glyph horiz-adv-x="602" />
<glyph unicode="&#xa1;" horiz-adv-x="681" d="M242 86l49 635h100l49 -635v-485h-198v485zM242 862v209h198v-209h-198z" />
<glyph unicode="&#xa2;" horiz-adv-x="1224" d="M131 504q0 268 115 424q131 174 389 174q55 0 86 -12l53 188h82l-53 -205q82 -23 151 -96q99 -104 115 -268h-168q-20 80 -39 114q-37 70 -100 95l-225 -791q20 -8 69 -8q236 0 295 258h176q-20 -154 -112 -264q-127 -154 -351 -154q25 0 -122 16l-66 -213h-82l70 234 q-283 135 -283 508zM311 504q0 -98 35 -191q41 -106 113 -153l221 782q-16 4 -57 4q-168 0 -248 -145q-63 -115 -64 -297z" />
<glyph unicode="&#xa3;" horiz-adv-x="1200" d="M70 651v127h139l-43 92q-43 100 -43 183q0 203 153 317q137 100 351 100q199 0 320.5 -118.5t121.5 -315.5v-32h-180v20q0 127 -78 209t-205 82q-117 0 -200 -66q-90 -72 -91 -184q1 -99 103 -287h344v-127h-283q16 -66 17 -135q0 -109 -78 -217q-66 -94 -168 -164l4 4 q139 70 266 70q61 0 178 -35t166 -35q94 0 156 62l86 -135q-129 -98 -262 -99q-59 0 -204.5 47t-221.5 47q-100 0 -242 -86l-98 144q250 170 250 385q0 59 -41 147h-217z" />
<glyph unicode="&#xa4;" horiz-adv-x="1200" d="M57 1139l99 98l118 -115q123 102 295 103q178 0 299 -103l115 115l98 -98l-110 -111q102 -123 102 -307t-102 -311l110 -115l-94 -90l-110 119q-123 -115 -308 -115q-180 0 -303 115l-114 -119l-91 90l111 115q-102 127 -102 311q0 186 102 307zM217 721 q0 -150 102.5 -259.5t249.5 -109.5t250 109.5t103 259.5q0 147 -103.5 253.5t-249.5 106.5q-145 0 -248.5 -106.5t-103.5 -253.5z" />
<glyph unicode="&#xa5;" horiz-adv-x="1200" d="M8 1409h205l356 -602l361 602h205l-398 -623h320v-114h-398v-176h398v-115h-398v-381h-180v381h-393v115h393v176h-393v114h315z" />
<glyph unicode="&#xa6;" horiz-adv-x="532" d="M193 -39v602h149v-602h-149zM193 942v567h149v-567h-149z" />
<glyph unicode="&#xa7;" horiz-adv-x="1200" d="M90 635q0 115 53 192q45 70 152 131q-98 106 -98 205q0 156 105.5 252t262.5 96q178 0 277.5 -98t99.5 -278h-172q0 221 -205 221q-80 0 -131 -43q-57 -47 -57 -125q0 -94 151 -184l299 -177q221 -131 222 -327q0 -195 -209 -328q106 -115 106 -233q0 -147 -115 -244 q-106 -88 -258 -88q-190 0 -295.5 98t-105.5 287h180q0 -229 197 -230q217 0 217 172q0 88 -115 164l-430 287q-131 88 -131 250zM258 680q0 -115 94 -176l385 -250q72 49 101 84q43 53 43 125q0 118 -127 196l-357 218q-139 -70 -139 -197z" />
<glyph unicode="&#xa8;" d="M-985 1790q0 94 64.5 158.5t158.5 64.5q92 0 157.5 -65.5t65.5 -157.5t-65.5 -157.5t-157.5 -65.5q-94 0 -158.5 64.5t-64.5 158.5zM-893 1790q0 -57 37 -94t94 -37q55 0 93 38t38 93t-38 93t-93 38q-53 0 -92 -39t-39 -92z" />
<glyph unicode="&#xa9;" horiz-adv-x="1642" d="M20 737q0 330 228.5 552t558.5 222q328 0 555 -223t227 -551q0 -330 -226 -554t-556 -224t-558.5 224.5t-228.5 553.5zM176 737q0 -274 179.5 -460.5t451.5 -186.5t449.5 186.5t177.5 460.5q0 272 -178.5 457.5t-448.5 185.5q-272 0 -451.5 -185.5t-179.5 -457.5z M377 741q0 207 123 339t327 132q158 0 261.5 -82.5t123.5 -236.5h-135q-18 88 -86.5 136t-163.5 48q-145 0 -223 -98q-72 -88 -72 -238q0 -145 78 -241q84 -102 226 -103q90 0 157.5 54.5t83.5 142.5h140q-31 -147 -130 -238q-104 -94 -251 -94q-207 0 -333 135t-126 344z " />
<glyph unicode="&#xaa;" horiz-adv-x="1277" d="M203 295v926h901v-926h-901z" />
<glyph unicode="&#xab;" horiz-adv-x="1200" d="M201 475v189l319 249v-180l-213 -164l213 -168v-180zM618 475v189l324 249v-180l-217 -164l217 -168v-180z" />
<glyph unicode="&#xac;" horiz-adv-x="2048" d="M74 727q0 289 121 498q166 285 507 284q254 0 365 -188l4 149h901v-176h-715v-450h682v-176h-682v-492h719v-176h-907v154q-78 -94 -131 -129q-100 -63 -264 -64q-301 0 -463 242q-137 207 -137 524zM279 694q0 -369 194 -501q88 -61 258 -62q145 0 236.5 96.5 t91.5 243.5v537q0 154 -101 245q-98 86 -253 86q-426 0 -426 -645z" />
<glyph unicode="&#xad;" horiz-adv-x="737" d="M90 475v184h504v-184h-504z" />
<glyph unicode="&#xae;" horiz-adv-x="1642" d="M20 737q0 330 228.5 552t558.5 222q328 0 555 -223t227 -551q0 -330 -226 -554t-556 -224t-558.5 224.5t-228.5 553.5zM176 737q0 -274 179.5 -460.5t451.5 -186.5t449.5 186.5t177.5 460.5q0 272 -178.5 457.5t-448.5 185.5q-272 0 -451.5 -185.5t-179.5 -457.5z M508 291v893h340q315 0 315 -254q0 -219 -229 -246l254 -393h-152l-237 385h-156v-385h-135zM643 791h164q109 0 154 20q63 33 63 127q0 131 -197 131h-184v-278z" />
<glyph unicode="&#xaf;" horiz-adv-x="737" d="M20 1286v115h644v-115h-644z" />
<glyph unicode="&#xb0;" horiz-adv-x="1806" d="M444 780q0 207 134.5 344.5t341.5 137.5q211 0 346 -135.5t135 -346.5q0 -209 -135.5 -343t-345.5 -134q-207 0 -341.5 135t-134.5 342z" />
<glyph unicode="&#xb1;" horiz-adv-x="1269" d="M82 0v152h1036v-152h-1036zM82 557v152h442v327h152v-327h442v-152h-442v-328h-152v328h-442z" />
<glyph unicode="&#xb2;" horiz-adv-x="737" d="M8 578q0 219 213 340l123 69q49 25 127 78q49 45 49 123v8q0 63 -55 98q-47 29 -117 29q-184 0 -184 -193h-123q0 311 324 312q127 0 208 -64q90 -72 91 -194q0 -84 -40 -142.5t-206 -148.5l-90 -49q-117 -63 -164 -144h500v-122h-656z" />
<glyph unicode="&#xb3;" horiz-adv-x="737" d="M12 840h140q0 -168 176 -168q197 0 196 147q0 147 -213 148h-45v102h53q168 0 168 139q0 115 -163 115q-164 0 -164 -164h-127q0 137 88 213q82 70 223 70q119 0 197 -56q90 -61 90 -174q0 -61 -31 -108q-33 -55 -88 -68q156 -49 156 -205q0 -137 -107 -213 q-94 -66 -237 -65q-84 0 -158 35q-84 37 -119 106q-35 64 -35 146z" />
<glyph unicode="&#xb4;" d="M-1065 1839h164l135 -192l135 192h164l-205 -291h-188z" />
<glyph unicode="&#xb5;" horiz-adv-x="1200" d="M139 -426v1499h180v-713q0 -233 209 -233q145 0 226 109q70 96 69 247v590h181v-1073h-173v156l-4 4q-115 -193 -340 -193q-109 0 -163 74l-5 -467h-180z" />
<glyph unicode="&#xb6;" horiz-adv-x="880" d="M-14 1171q0 311 379 312h407v-1458h-121v1359h-194v-1359h-119v845q-145 0 -244 76q-109 84 -108 225z" />
<glyph unicode="&#xb7;" horiz-adv-x="512" d="M145 678q0 45 33 77.5t78 32.5q47 0 79 -31.5t32 -78.5t-32 -79t-79 -32q-43 0 -77 33t-34 78z" />
<glyph unicode="&#xb8;" d="M-881 1434h164l135 -189l136 189h159l-200 -287h-193z" />
<glyph unicode="&#xb9;" horiz-adv-x="737" d="M90 1184v94q119 0 164 25q59 33 86 139h115v-864h-144v606h-221z" />
<glyph unicode="&#xba;" horiz-adv-x="1359" d="M231 264v1002h967v-1002h-967zM322 342h790v838h-790v-838z" />
<glyph unicode="&#xbb;" horiz-adv-x="1200" d="M201 221v180l213 168l-213 164v180l319 -249v-189zM618 221v180l218 168l-218 164v180l324 -249v-189z" />
<glyph unicode="&#xbc;" horiz-adv-x="1798" d="M152 1188v90q119 0 163 25q59 33 86 139h111v-864h-139v610h-221zM315 -41l906 1483h118l-905 -1483h-119zM860 193v122l422 549h131v-553h135v-118h-135v-193h-131v193h-422zM987 311h295v385z" />
<glyph unicode="&#xbd;" horiz-adv-x="1798" d="M90 1184v94q119 0 164 25q59 33 86 139h115v-864h-144v606h-221zM242 -41l905 1483h119l-906 -1483h-118zM930 0q0 231 213 344l123 66q98 51 127 79q49 47 49 121v8q0 63 -56 99q-47 29 -116 28q-185 0 -185 -188h-122q0 307 323 307q127 0 209 -63q90 -72 90 -195 q0 -106 -72 -178q-51 -51 -174 -113l-90 -45q-61 -31 -108 -73q-27 -23 -56 -70h500v-127h-655z" />
<glyph unicode="&#xbe;" horiz-adv-x="1798" d="M94 840h139q0 -168 177 -168q197 0 196 147q0 147 -213 148h-45v102h53q168 0 168 139q0 115 -163 115q-164 0 -164 -164h-127q0 137 88 213q82 70 223 70q119 0 197 -56q90 -61 90 -174q0 -61 -31 -108q-33 -55 -88 -68q156 -49 156 -205q0 -137 -107 -213 q-94 -66 -237 -65q-84 0 -158 35q-84 37 -119 106q-35 64 -35 146zM438 -41l905 1483h115l-905 -1483h-115zM971 193v122l422 549h131v-553h135v-118h-135v-193h-131v193h-422zM1098 311h295v385z" />
<glyph unicode="&#xbf;" horiz-adv-x="1251" d="M186 -10q0 98 43 170q35 59 150 168q84 80 113 118q66 90 65 256h180q0 -164 -43 -251q-31 -63 -151 -189q-92 -96 -111 -119q-53 -66 -53 -166q0 -106 69.5 -169.5t178.5 -63.5q272 0 272 324h180q0 -127 -24 -201q-61 -188 -275 -254q-80 -25 -159 -25q-186 0 -308 107 q-127 111 -127 295zM543 866v209h198v-209h-198z" />
<glyph unicode="&#xc0;" d="M-1065 1618l205 291h188l205 -291h-164l-135 192l-135 -192h-164zM-692 2159h221l180 -291h-135z" />
<glyph unicode="&#xc1;" d="M-1065 1618l205 291h188l205 -291h-164l-135 192l-135 -192h-164zM-524 1835l180 291h221l-266 -291h-135z" />
<glyph unicode="&#xc2;" d="M-1065 1618l205 291h188l205 -291h-164l-135 192l-135 -192h-164z" />
<glyph unicode="&#xc3;" d="M-1110 2011q31 217 213 217q76 0 139 -28l45 -21q53 -25 95 -25q84 1 102 95h102q-10 -94 -59 -156q-57 -70 -145 -70q-27 0 -119 29l-54 16q-106 33 -127 33q-68 0 -94 -90h-98zM-1065 1618l205 291h188l205 -291h-164l-135 192l-135 -192h-164z" />
<glyph unicode="&#xc4;" d="M-1065 1618l205 291h188l205 -291h-164l-135 192l-135 -192h-164zM-856 -143h180v-205h-180v205z" />
<glyph unicode="&#xc5;" d="M-1065 1618l205 291h188l205 -291h-164l-135 192l-135 -192h-164zM-666 2058q0 100 60.5 158.5t161.5 58.5q100 0 163 -47q72 -51 72 -149q0 -90 -113 -170q-59 -43 -59 -137h-117q0 80 15 118q20 53 77.5 93t57.5 92q0 92 -88 92q-98 0 -99 -107z" />
<glyph unicode="&#xc6;" horiz-adv-x="602" d="M72 1833q0 100 60.5 158.5t160.5 58.5t164 -47q72 -51 71 -150q0 -90 -110 -170q-62 -43 -62 -137h-116q0 80 14 119q20 53 77.5 93t57.5 91q0 92 -88 93q-98 0 -98 -107zM188 0v1470h197v-1470h-197z" />
<glyph unicode="&#xc7;" horiz-adv-x="1568" d="M90 745q0 334 174 543q186 223 514 223q238 0 402 -122q171 -132 200 -361h-192q-31 152 -146 234q-104 74 -264 73q-240 0 -368 -178q-115 -158 -115 -407q0 -610 487 -611q174 0 285 117q100 102 137 285h193q-39 -270 -207 -426t-436 -156q-328 0 -504 236 q-160 211 -160 550zM492 -418l36 82q70 -29 131 -29q115 0 115 86q0 78 -98 78q-18 0 -78 -16l-37 41l131 176h99l-95 -127q39 8 62 8q172 0 172 -155q0 -92 -78 -144q-66 -45 -164 -45q-78 0 -196 45z" />
<glyph unicode="&#xc8;" d="M-1065 1839h98q10 -33 17 -45q53 -119 205 -119q106 0 159 58q31 32 54 106h98q-35 -279 -328 -278q-270 0 -303 278zM-1061 2138h221l181 -291h-136z" />
<glyph unicode="&#xc9;" d="M-1065 1839h98q10 -33 17 -45q53 -119 205 -119q106 0 159 58q31 32 54 106h98q-35 -279 -328 -278q-270 0 -303 278zM-815 1851l180 291h221l-266 -291h-135z" />
<glyph unicode="&#xca;" d="M-1065 1839h98q10 -33 17 -45q53 -119 205 -119q106 0 159 58q31 32 54 106h98q-35 -279 -328 -278q-270 0 -303 278z" />
<glyph unicode="&#xcb;" d="M-1065 1839h98q10 -33 17 -45q53 -119 205 -119q106 0 159 58q31 32 54 106h98q-35 -279 -328 -278q-270 0 -303 278zM-856 -139h180v-205h-180v205z" />
<glyph unicode="&#xcc;" horiz-adv-x="602" d="M12 1884h226l180 -291h-135zM188 0v1470h197v-1470h-197z" />
<glyph unicode="&#xcd;" horiz-adv-x="602" d="M184 1606l181 290h221l-267 -290h-135zM188 0v1470h197v-1470h-197z" />
<glyph unicode="&#xce;" horiz-adv-x="1454" d="M29 1470h233l422 -704l422 704h233l-557 -876v-594h-196v594zM602 -139h180v-205h-180v205z" />
<glyph unicode="&#xcf;" d="M-852 -119h180v-205h-180v205z" />
<glyph unicode="&#xd0;" horiz-adv-x="569" d="M33 1665v209h188v-209h-188zM188 0v1470h197v-1470h-197zM365 1665v209h188v-209h-188z" />
<glyph unicode="&#xd1;" horiz-adv-x="1568" d="M61 668v176h107v626h594q299 0 465 -210q154 -195 153 -502q0 -131 -28 -252q-121 -506 -598 -506h-586v668h-107zM365 172h385q223 0 335 182q90 152 91 391q0 244 -97 388q-113 170 -342 170h-372v-459h393v-176h-393v-496z" />
<glyph unicode="&#xd2;" horiz-adv-x="602" d="M188 0v1470h197v-1470h-197zM197 -135h180v-205h-180v205z" />
<glyph unicode="&#xd3;" horiz-adv-x="602" d="M-53 1638q31 217 213 217q76 0 139 -28l45 -21q53 -25 94 -24q85 0 103 94h102q-10 -94 -59 -156q-57 -70 -146 -69q-27 0 -119 28l-53 17q-106 33 -127 33q-68 0 -94 -91h-98zM188 0v1470h197v-1470h-197z" />
<glyph unicode="&#xd4;" horiz-adv-x="1572" d="M94 737q0 293 152 504q195 270 565 270q201 0 352 -86q27 4 82 58q45 43 45 119h-114v127h196v-181q0 -61 -61 -118q-39 -36 -78 -54q143 -102 223 -282q72 -168 72 -357q0 -295 -152 -508q-193 -270 -565 -270q-371 0 -563 268q-154 215 -154 510zM299 737 q0 -256 125 -418q139 -180 387 -180q246 0 385 180q127 164 127 418t-127 418q-139 180 -385 180q-244 0 -385 -182q-127 -164 -127 -416z" />
<glyph unicode="&#xd5;" d="M-1114 1642q31 217 213 218q76 0 139 -29l45 -21q53 -25 94 -24q85 0 103 94h102q-10 -94 -59 -156q-57 -70 -146 -69q-27 0 -118 28l-54 17q-106 33 -127 33q-68 0 -94 -91h-98z" />
<glyph unicode="&#xd6;" horiz-adv-x="1478" d="M152 492v978h196v-925q0 -188 94.5 -297t278.5 -109q389 0 389 402v929h197v-69q33 10 65 39q25 20 25 59v49h-115v127h197v-180q0 -100 -117 -156q-12 -6 -55 -24v-799q0 -262 -162 -409.5t-428 -147.5q-256 0 -408 137q-158 143 -157 396z" />
<glyph unicode="&#xd7;" horiz-adv-x="1269" d="M82 106l414 414l-414 414l106 102l410 -409l414 409l106 -102l-413 -414l413 -414l-106 -106l-414 414l-414 -414z" />
<glyph unicode="&#xd8;" d="M-1077 1905h221l180 -291h-135z" />
<glyph unicode="&#xd9;" d="M-856 1614l180 291h221l-266 -291h-135z" />
<glyph unicode="&#xda;" d="M-1065 1880h98q10 -33 17 -45q53 -119 205 -119q106 0 159 58q31 32 54 106h98q-35 -279 -328 -278q-270 0 -303 278zM-961 2079q0 100 60.5 158.5t161.5 58.5q100 0 164 -47q72 -51 71 -150q0 -92 -110 -170q-58 -40 -58 -112h-121q0 74 16.5 109.5t75 76.5t58.5 92 q0 92 -88 92q-98 0 -98 -106z" />
<glyph unicode="&#xdb;" d="M-977 1841q0 100 60.5 158.5t160.5 58.5t164 -47q72 -51 72 -149q0 -90 -113 -170q-59 -44 -59 -138h-117q0 80 14 119q20 53 78 93t58 92q0 92 -89 92q-98 0 -98 -107z" />
<glyph unicode="&#xdc;" d="M-1065 1880h98q10 -33 17 -45q53 -119 205 -119q106 0 159 58q31 32 54 106h98q-35 -279 -328 -278q-270 0 -303 278zM-897 1970q27 221 213 221q49 0 139 -32l45 -17q78 -29 99 -28q84 0 102 94h102q-12 -90 -61 -152q-57 -70 -143 -69q-59 0 -123 24l-54 21 q-74 29 -122 28q-68 0 -99 -90h-98z" />
<glyph unicode="&#xdd;" horiz-adv-x="602" d="M-12 1622l200 287h193l201 -287h-164l-135 188l-136 -188h-159zM188 0v1470h197v-1470h-197z" />
<glyph unicode="&#xde;" horiz-adv-x="1593" d="M80 735q0 295 151 506q193 268 566 268q307 0 489 -182l166 182l64 -61l-170 -186q168 -217 167 -527q0 -295 -151 -506q-193 -268 -565 -268q-297 0 -484 178l-163 -178l-66 57l170 185q-174 217 -174 532zM285 735q0 -223 104 -385l766 834q-137 150 -358 149 q-246 0 -385 -180q-127 -164 -127 -418zM444 283q137 -145 353 -146q246 0 385 180q127 164 127 418q-1 225 -101 377z" />
<glyph unicode="&#xdf;" horiz-adv-x="1251" d="M137 0v1090q0 199 142 305q125 96 331 96q201 0 332 -82q158 -98 158 -287q0 -129 -66 -215q-33 -43 -102 -88q102 -27 169.5 -125t67.5 -207q0 -248 -134 -383t-382 -135q-41 0 -67.5 6.5t-40.5 8.5v153l90 -6q170 -12 259 70t89 237q0 287 -348 287q-47 0 -80 -8v162 l47 -5q156 -14 250 70q68 59 68 162q0 119 -101 180q-84 49 -211 49q-154 0 -222.5 -69.5t-68.5 -221.5v-1044h-180z" />
<glyph unicode="&#xe0;" d="M-922 1196l201 287h193l200 -287h-164l-135 188l-135 -188h-160zM-565 1733h221l184 -287h-139z" />
<glyph unicode="&#xe1;" d="M-922 1196l201 287h193l200 -287h-164l-135 188l-135 -188h-160zM-381 1430l184 286h222l-267 -286h-139z" />
<glyph unicode="&#xe2;" d="M-922 1196l201 287h193l200 -287h-164l-135 188l-135 -188h-160z" />
<glyph unicode="&#xe3;" d="M-958 1561q27 221 213 221q49 0 139 -33l45 -16q78 -29 98 -29q85 0 103 94h102q-12 -90 -61 -151q-57 -70 -144 -70q-59 0 -123 25l-53 20q-74 29 -123 29q-68 0 -98 -90h-98zM-922 1196l201 287h193l200 -287h-164l-135 188l-135 -188h-160z" />
<glyph unicode="&#xe4;" d="M-922 1196l201 287h193l200 -287h-164l-135 188l-135 -188h-160zM-705 -160h181v-205h-181v205z" />
<glyph unicode="&#xe5;" d="M-922 1196l201 287h193l200 -287h-164l-135 188l-135 -188h-160zM-535 1632q0 100 60.5 158.5t161.5 58.5q100 0 163 -47q72 -51 72 -149q0 -92 -110 -170q-58 -41 -58 -113h-121q0 74 16.5 110t75 76.5t58.5 92.5q0 92 -88 92q-98 0 -98 -107z" />
<glyph unicode="&#xe6;" horiz-adv-x="487" d="M23 1415q0 100 60 158.5t161 58.5q100 0 164 -47q72 -51 71 -149q0 -92 -110 -170q-58 -41 -58 -113h-121q0 74 16.5 109.5t75 76.5t58.5 93q0 92 -88 92q-98 0 -98 -107zM143 0v1073h181v-1073h-181z" />
<glyph unicode="&#xe7;" horiz-adv-x="1085" d="M61 508q0 266 123 422q135 172 394 172q176 0 284 -109q101 -102 117 -280h-176q-35 229 -254 229q-154 0 -232 -133q-63 -106 -63 -272q0 -410 295 -410q102 0 172 78q63 70 82 176h176q-20 -188 -133 -299q-119 -115 -305 -115q-227 0 -359 160q-121 147 -121 381z M266 -418l33 82q74 -29 135 -29q115 0 115 86q0 78 -98 78q-23 0 -82 -16l-33 41l131 176h94l-94 -127l37 6q12 2 28 2q76 0 124.5 -41t48.5 -114q0 -92 -78 -144q-66 -45 -164 -45q-78 0 -197 45z" />
<glyph unicode="&#xe8;" d="M-967 1782h222l184 -287h-139zM-950 1475h98q10 -33 16 -45q53 -119 205 -119q106 0 160 57q30 33 53 107h99q-35 -279 -328 -279q-270 0 -303 279z" />
<glyph unicode="&#xe9;" d="M-950 1475h98q10 -33 16 -45q53 -119 205 -119q106 0 160 57q30 33 53 107h99q-35 -279 -328 -279q-270 0 -303 279zM-713 1520l185 286h221l-266 -286h-140z" />
<glyph unicode="&#xea;" d="M-950 1475h98q10 -33 16 -45q53 -119 205 -119q106 0 160 57q30 33 53 107h99q-35 -279 -328 -279q-270 0 -303 279z" />
<glyph unicode="&#xeb;" d="M-950 1475h98q10 -33 16 -45q53 -119 205 -119q106 0 160 57q30 33 53 107h99q-35 -279 -328 -279q-270 0 -303 279zM-705 -152h181v-204h-181v204z" />
<glyph unicode="&#xec;" horiz-adv-x="487" d="M-29 1470h226l180 -286h-135zM143 0v1073h181v-1073h-181z" />
<glyph unicode="&#xed;" horiz-adv-x="487" d="M127 1188l180 287h221l-266 -287h-135zM143 0v1073h181v-1073h-181z" />
<glyph unicode="&#xee;" horiz-adv-x="1085" d="M25 1073h204l283 -872l291 872h201l-187 -522q-117 -324 -199 -531q-43 -115 -86 -229q-49 -115 -114 -166q-82 -63 -221 -63q-16 0 -27 2q-31 10 -47 14v164q55 -20 106 -21q80 0 127 86q4 4 66 164zM721 -119h180v-205h-180v205z" />
<glyph unicode="&#xef;" d="M-700 -119h180v-205h-180v205z" />
<glyph unicode="&#xf0;" horiz-adv-x="487" d="M-10 1264v209h188v-209h-188zM143 0v1073h181v-1073h-181zM322 1264v209h188v-209h-188z" />
<glyph unicode="&#xf1;" horiz-adv-x="1200" d="M74 569q0 225 108 371q119 162 338 162q127 0 215 -66q45 -35 105 -114l4 12v258h-258v156h258v122h180v-127h82v-143h-82v-1200h-172v147q-100 -180 -307 -180q-240 0 -365 189q-106 162 -106 413zM258 541q0 -168 61 -277q76 -137 230 -137q145 0 223 111q68 98 68 249 q0 455 -287 455q-295 0 -295 -401z" />
<glyph unicode="&#xf2;" horiz-adv-x="487" d="M139 0v1073h180v-1073h-180zM139 1266v204h180v-204h-180zM147 -139h181v-205h-181v205z" />
<glyph unicode="&#xf3;" horiz-adv-x="487" d="M-94 1237q27 221 213 221q49 0 139 -33l45 -16q78 -29 98 -29q85 1 103 95h102q-12 -90 -61 -152q-57 -70 -144 -70q-59 0 -122 25l-54 20q-74 29 -123 29q-68 0 -98 -90h-98zM143 0v1073h181v-1073h-181z" />
<glyph unicode="&#xf4;" horiz-adv-x="1200" d="M74 537q0 240 125 395q135 170 370 170q213 0 336 -123q12 2 70 57q45 43 45 119h-115v127h197v-180q0 -59 -59.5 -117.5t-84.5 -66.5q111 -152 111 -381q0 -238 -129 -396q-137 -170 -371 -170q-233 0 -368 170q-127 158 -127 396zM258 537q0 -168 70 -279 q82 -131 241 -131q160 0 242 131q70 111 70 279t-70 278q-82 131 -242 131t-241 -131q-70 -110 -70 -278z" />
<glyph unicode="&#xf5;" d="M-995 1241q27 221 213 221q49 0 139 -32l45 -17q78 -29 98 -29q85 1 103 95h102q-12 -90 -61 -152q-57 -70 -144 -70q-59 0 -123 25l-53 21q-74 29 -123 28q-68 0 -98 -90h-98z" />
<glyph unicode="&#xf6;" horiz-adv-x="1200" d="M139 303v770h180v-713q0 -233 209 -233q145 0 226 109q70 96 69 247v590h181v-69q12 4 30 20q10 14 15 16q41 39 41 123h-115v127h196v-180q0 -61 -61 -119q-47 -45 -106 -69v-922h-173v156l-4 4q-115 -193 -340 -193q-160 0 -254 88t-94 248z" />
<glyph unicode="&#xf7;" horiz-adv-x="1269" d="M82 442v152h1036v-152h-1036zM459 102q0 57 41 98.5t98 41.5t98 -41t41 -99q0 -57 -41 -100t-98 -43t-98 43t-41 100zM459 934q0 57 41 98t98 41q59 0 99 -40t40 -99q0 -57 -41 -98t-98 -41q-55 0 -97 42t-42 97z" />
<glyph unicode="&#xf8;" d="M-868 1503h225l180 -286h-135z" />
<glyph unicode="&#xf9;" d="M-717 1217l185 286h221l-267 -286h-139z" />
<glyph unicode="&#xfa;" d="M-950 1475h98q10 -33 16 -45q53 -119 205 -119q106 0 160 57q30 33 53 107h99q-35 -279 -328 -279q-270 0 -303 279zM-846 1714q0 100 60.5 158.5t160.5 58.5t164 -47q72 -51 72 -149q0 -92 -111 -170q-57 -41 -57 -113h-121q0 74 16.5 109.5t75 76.5t58.5 93 q0 92 -88 92q-98 0 -99 -107z" />
<glyph unicode="&#xfb;" d="M-879 1440q0 100 60.5 158.5t161.5 58.5q100 0 163 -47q72 -51 72 -150q0 -92 -110 -170q-58 -40 -58 -112h-121q0 74 16.5 109.5t75 76.5t58.5 92q0 92 -88 92q-98 0 -99 -106z" />
<glyph unicode="&#xfc;" d="M-950 1475h98q10 -33 16 -45q53 -119 205 -119q106 0 160 57q30 33 53 107h99q-35 -279 -328 -279q-270 0 -303 279zM-815 1573q27 221 213 221q49 0 139 -33l45 -16q78 -29 99 -29q84 0 102 94h102q-12 -90 -61 -151q-57 -70 -143 -70q-59 0 -123 25l-54 20 q-74 29 -122 29q-68 0 -99 -90h-98z" />
<glyph unicode="&#xfd;" horiz-adv-x="487" d="M-74 1167l201 287h192l201 -287h-164l-135 189l-135 -189h-160zM143 0v1073h181v-1073h-181z" />
<glyph unicode="&#xfe;" horiz-adv-x="1251" d="M57 8l131 148q-117 158 -116 381q0 242 125 397q137 168 372 168q207 0 336 -133l131 147l64 -53l-142 -160q109 -150 109 -366q0 -242 -125 -398q-137 -168 -373 -168q-199 0 -325 123l-123 -139zM258 537q0 -138 51 -244l484 547q-80 106 -224 106q-160 0 -241 -131 q-70 -111 -70 -278zM356 221q76 -94 213 -94q160 0 242 131q70 111 70 279q0 131 -45 227z" />
<glyph unicode="&#xff;" horiz-adv-x="1085" d="M25 1073h204l283 -872l291 872h201l-187 -522q-117 -324 -199 -531q-43 -115 -86 -229q-49 -115 -114 -166q-82 -63 -221 -63q-16 0 -27 2q-31 10 -47 14v164q55 -20 106 -21q80 0 127 86q4 4 66 164zM721 -119h180v-205h-180v205z" />
<glyph unicode="&#x152;" d="M-967 1823v12q0 86 64.5 139.5t152.5 53.5q84 0 140.5 -48.5t56.5 -132.5q-25 -92 -135 -184l-8 -21v-69h-86v29q0 102 53 159q31 41 53 82q0 102 -86 103q-106 0 -106 -123h-99z" />
<glyph unicode="&#x153;" d="M-864 1434v12q0 86 64.5 139t152.5 53q84 0 140 -48t56 -132q-25 -92 -135 -184l-8 -21v-69h-86v28q0 102 53 160q31 41 54 82q0 102 -86 102q-106 0 -107 -122h-98z" />
<glyph unicode="&#x178;" horiz-adv-x="1454" d="M29 1470h233l422 -704l422 704h233l-557 -876v-594h-196v594zM602 -139h180v-205h-180v205z" />
<glyph unicode="&#x2c6;" horiz-adv-x="602" />
<glyph unicode="&#x2dc;" d="M-850 1384q0 94 64.5 159t158.5 65q92 0 158 -65.5t66 -158.5q0 -92 -66 -157.5t-158 -65.5q-94 0 -158.5 64.5t-64.5 158.5zM-758 1384q0 -57 37 -94t94 -37q55 0 93 38t38 93t-37.5 93.5t-93.5 38.5q-53 0 -92 -39.5t-39 -92.5z" />
<glyph unicode="&#x2000;" horiz-adv-x="1148" />
<glyph unicode="&#x2001;" horiz-adv-x="2296" />
<glyph unicode="&#x2002;" horiz-adv-x="1148" />
<glyph unicode="&#x2003;" horiz-adv-x="2296" />
<glyph unicode="&#x2004;" horiz-adv-x="765" />
<glyph unicode="&#x2005;" horiz-adv-x="574" />
<glyph unicode="&#x2006;" horiz-adv-x="382" />
<glyph unicode="&#x2007;" horiz-adv-x="382" />
<glyph unicode="&#x2008;" horiz-adv-x="287" />
<glyph unicode="&#x2009;" horiz-adv-x="459" />
<glyph unicode="&#x200a;" horiz-adv-x="127" />
<glyph unicode="&#x2010;" horiz-adv-x="737" d="M90 475v184h504v-184h-504z" />
<glyph unicode="&#x2011;" horiz-adv-x="737" d="M90 475v184h504v-184h-504z" />
<glyph unicode="&#x2012;" horiz-adv-x="737" d="M90 475v184h504v-184h-504z" />
<glyph unicode="&#x2013;" horiz-adv-x="1200" d="M0 492v151h1139v-151h-1139z" />
<glyph unicode="&#x2014;" horiz-adv-x="2166" d="M0 492v151h2048v-151h-2048z" />
<glyph unicode="&#x2018;" horiz-adv-x="487" d="M135 963v200q0 272 213 324v-98q-111 -16 -110 -209h110v-217h-213z" />
<glyph unicode="&#x2019;" horiz-adv-x="487" d="M111 950v94q106 16 106 209h-106v217h213v-200q0 -270 -213 -320z" />
<glyph unicode="&#x201a;" horiz-adv-x="2048" d="M16 0l598 1470h1319v-176h-798v-450h729v-176h-729v-492h813v-176h-1012v428h-543l-162 -428h-215zM465 604h471v690h-199z" />
<glyph unicode="&#x201c;" horiz-adv-x="737" d="M78 963v200q0 270 213 324v-98q-106 -16 -107 -209h107v-217h-213zM418 963v200q0 272 213 324v-98q-111 -16 -111 -209h111v-217h-213z" />
<glyph unicode="&#x201d;" horiz-adv-x="737" d="M53 950v94q111 16 111 209h-111v217h213v-200q0 -272 -213 -320zM393 950v94q106 16 107 209h-107v217h213v-200q0 -270 -213 -320z" />
<glyph unicode="&#x201e;" horiz-adv-x="1820" d="M74 279q0 295 325 335l297 37q94 12 95 127q0 174 -252 174q-115 0 -171.5 -48t-74.5 -159h-166q0 356 442 357q119 0 192 -32t157 -120q76 72 118 97q96 55 238 55q248 0 364 -199q96 -160 97 -426h-783q0 -352 312 -352q94 0 180 57q96 64 96 154h180q-8 -61 -45 -131 q-84 -162 -243 -211q-80 -25 -193 -25q-268 0 -393 224q-147 -223 -436 -224q-145 0 -238 80q-98 86 -98 230zM260 305q0 -186 195 -186q121 0 219 63q112 74 112 189v176q-39 -33 -297 -68q-229 -31 -229 -174zM952 621h596q0 147 -75.5 233t-223.5 86q-127 0 -212 -96 t-85 -223z" />
<glyph unicode="&#x2022;" horiz-adv-x="602" />
<glyph unicode="&#x2026;" horiz-adv-x="1245" d="M184 0v209h189v-209h-189zM516 0v209h189v-209h-189zM848 0v209h188v-209h-188z" />
<glyph unicode="&#x202f;" horiz-adv-x="459" />
<glyph unicode="&#x2039;" horiz-adv-x="737" d="M201 475v189l319 249v-180l-213 -164l213 -168v-180z" />
<glyph unicode="&#x203a;" horiz-adv-x="737" d="M201 221v180l213 168l-213 164v180l319 -249v-189z" />
<glyph unicode="&#x205f;" horiz-adv-x="574" />
<glyph unicode="&#x2122;" horiz-adv-x="2048" d="M94 1348v122h670v-122h-260v-721h-150v721h-260zM911 627v843h230l241 -620l238 620h229v-843h-149v686l-268 -686h-103l-264 686l-4 -686h-150z" />
<glyph unicode="&#x25fc;" horiz-adv-x="1075" d="M0 0v1075h1075v-1075h-1075z" />
</font>
</defs>
</svg>
